<svg width="34" height="34" viewBox="0 0 34 34" fill="none" xmlns="http://www.w3.org/2000/svg">
<path d="M10.6803 31.875C23.511 31.875 30.5299 21.2436 30.5299 12.0402C30.5299 11.7427 30.5299 11.441 30.5171 11.1435C31.8836 10.1543 33.063 8.92955 34 7.52673C32.7235 8.08954 31.3709 8.46046 29.9859 8.62748C31.4448 7.75546 32.5374 6.38341 33.0607 4.76635C31.6901 5.57837 30.1899 6.1484 28.6259 6.45148C27.5744 5.33165 26.183 4.5898 24.6672 4.34084C23.1514 4.09187 21.5958 4.34969 20.2413 5.07434C18.8869 5.799 17.8092 6.95006 17.1752 8.34923C16.5412 9.7484 16.3863 11.3176 16.7344 12.8137C13.9607 12.6746 11.2472 11.9541 8.76997 10.6988C6.2927 9.44352 4.10695 7.68152 2.3545 5.5271C1.46485 7.06365 1.19334 8.8812 1.59512 10.6107C1.9969 12.3401 3.04184 13.8519 4.51775 14.8389C3.41177 14.8013 2.33011 14.5043 1.36 13.9719V14.0675C1.36191 15.6771 1.91953 17.2367 2.93861 18.4827C3.95769 19.7287 5.37571 20.5846 6.953 20.9057C6.35431 21.0707 5.73586 21.1529 5.11488 21.1501C4.67709 21.1514 4.24018 21.1109 3.81012 21.029C4.25592 22.4146 5.12396 23.6261 6.29265 24.4937C7.46134 25.3614 8.87216 25.8418 10.3275 25.8676C7.85518 27.8094 4.80123 28.8626 1.6575 28.8575C1.10356 28.8598 0.549999 28.8279 0 28.7619C3.19072 30.796 6.89626 31.8761 10.6803 31.875Z" fill="white"/>
</svg>
