<svg width="223" height="54" viewBox="0 0 223 54" fill="none" xmlns="http://www.w3.org/2000/svg">
<path d="M18.5547 12.8975H18.4082C18.3594 11.2536 17.7979 9.94336 16.7236 8.9668C15.6982 8.03906 14.4368 7.60775 12.9395 7.67285L12.915 38.2881C12.915 39.3949 13.2243 40.3958 13.8428 41.291C14.3962 42.1048 15.0391 42.6338 15.7715 42.8779V43H2.75879V42.8779C4.64681 42.1292 5.59082 40.5911 5.59082 38.2637V7.67285C4.1748 7.60775 2.93783 8.02279 1.87988 8.91797C0.82194 9.79688 0.236003 10.9525 0.12207 12.3848H0V0.983398H18.5547V12.8975ZM38.3545 43H30.6396V22.0527C30.6396 20.6855 30.0944 20.002 29.0039 20.002C27.9297 20.002 27.3926 20.7018 27.3926 22.1016V40.583C27.3926 41.6572 27.8564 42.3978 28.7842 42.8047V43H20.6543V9.52832C20.6543 8.24251 20.1823 7.5752 19.2383 7.52637V7.33105L27.3926 0.983398V16.6084C28.7435 15.2412 30.4281 14.5576 32.4463 14.5576C33.7809 14.5739 34.8551 14.9808 35.6689 15.7783C36.499 16.5758 36.9141 17.6908 36.9141 19.123V40.7295C36.9141 41.7549 37.3942 42.4466 38.3545 42.8047V43ZM55.8594 36.9941C55.8431 40.998 54.2074 43 50.9521 43H42.8467C40.6006 43 39.4775 41.9014 39.4775 39.7041V18.0732C39.4775 17.0967 39.8275 16.3236 40.5273 15.7539C41.2272 15.1842 42.0736 14.8994 43.0664 14.8994H52.5146C53.3773 14.8994 54.0934 15.1598 54.6631 15.6807C55.2816 16.2666 55.5908 17.0316 55.5908 17.9756V24.0547C55.5908 25.373 54.9642 26.5531 53.7109 27.5947L48.2666 32.1113C47.0296 33.1367 46.4193 34.097 46.4355 34.9922C46.4681 36.3431 47.4772 37.0186 49.4629 37.0186H51.2939C53.4424 37.0186 54.8177 36.2292 55.4199 34.6504L55.6396 34.626C55.8024 35.2445 55.8757 36.0339 55.8594 36.9941ZM48.877 21.9307V21.54C48.877 20.2868 48.4294 19.6764 47.5342 19.709C46.6064 19.7415 46.1426 20.4251 46.1426 21.7598V26.1543L47.7051 24.8359C48.4863 24.2012 48.877 23.2327 48.877 21.9307ZM82.1533 38.0684C82.1533 39.3542 81.7464 40.4772 80.9326 41.4375C80.07 42.4792 78.9714 43 77.6367 43H72.9492C71.7936 43 70.7601 42.6419 69.8486 41.9258C68.4977 40.8516 67.8223 38.8659 67.8223 35.9688V7.08691C67.8223 5.24772 68.2861 3.79915 69.2139 2.74121C70.2393 1.56934 71.4844 0.983398 72.9492 0.983398H77.6367C78.9714 0.983398 80.07 1.50423 80.9326 2.5459C81.7464 3.50618 82.1533 4.62923 82.1533 5.91504V14.0938H82.0312C81.3802 10.9362 80.1188 9.36556 78.2471 9.38184C76.1475 9.39811 75.0977 10.3828 75.0977 12.3359V31.6475C75.0977 33.6006 76.1556 34.5853 78.2715 34.6016C80.127 34.6178 81.3802 33.0472 82.0312 29.8896H82.1533V38.0684ZM100.122 22.7852L93.8477 28.6201V22.0527C93.8477 20.6855 93.3919 20.002 92.4805 20.002C91.4714 19.9694 90.9668 20.6693 90.9668 22.1016V40.9736C90.9668 41.9827 91.4144 42.5605 92.3096 42.707V43H84.2285V22.541C84.2285 21.2389 83.7565 20.5716 82.8125 20.5391V20.3193L90.9668 13.8252V16.6572C92.2363 15.3226 93.7988 14.6471 95.6543 14.6309C98.6328 14.5983 100.122 16.0387 100.122 18.9521V22.7852ZM121.021 15.0703C120.288 15.2168 119.759 16.0632 119.434 17.6094L113.55 44.9287C112.98 47.6468 112.345 49.5674 111.646 50.6904C110.392 52.7412 108.488 53.7666 105.933 53.7666C103.898 53.7666 102.311 53.2051 101.172 52.082V43.3906C102.555 45.36 103.727 46.3447 104.688 46.3447C106.266 46.3447 107.056 45.4007 107.056 43.5127C107.056 42.8779 106.966 42.113 106.787 41.2178L101.709 17.2188C101.449 15.9818 100.92 15.2656 100.122 15.0703L100.098 14.8994H109.546V15.0947C108.911 15.3226 108.594 15.7946 108.594 16.5107C108.594 16.7223 108.618 16.9583 108.667 17.2188L110.547 26.6182H110.669L112.695 17.1455C112.728 16.9665 112.744 16.7956 112.744 16.6328C112.744 15.7702 112.337 15.2575 111.523 15.0947V14.8994H121.021V15.0703ZM148.218 43H140.43V22.0527C140.43 20.6855 139.941 20.002 138.965 20.002C138.021 20.002 137.549 20.7018 137.549 22.1016V40.7295C137.549 41.7549 138.021 42.4466 138.965 42.8047V43H131.25V22.0527C131.25 20.6855 130.762 20.002 129.785 20.002C128.841 20.002 128.369 20.7018 128.369 22.1016V40.9736C128.369 41.9827 128.817 42.5605 129.712 42.707V43H121.631V22.4678C121.631 21.1982 121.159 20.5309 120.215 20.4658V20.2949L128.369 13.8252V16.6084C129.671 15.2575 131.266 14.582 133.154 14.582C134.847 14.5983 136.051 15.1029 136.768 16.0957C138.542 15.0866 140.397 14.582 142.334 14.582C143.669 14.5983 144.735 14.9889 145.532 15.7539C146.379 16.584 146.802 17.707 146.802 19.123V40.7295C146.802 41.7549 147.274 42.4466 148.218 42.8047V43ZM158.179 8.42969C158.179 9.66667 157.764 10.7246 156.934 11.6035C156.104 12.4824 155.103 12.9219 153.931 12.9219C152.743 12.9219 151.733 12.4824 150.903 11.6035C150.073 10.7246 149.658 9.66667 149.658 8.42969C149.658 7.19271 150.073 6.13477 150.903 5.25586C151.733 4.37695 152.743 3.9375 153.931 3.9375C155.103 3.9375 156.104 4.37695 156.934 5.25586C157.764 6.13477 158.179 7.19271 158.179 8.42969ZM158.374 43H150.293V22.4922C150.293 21.1901 149.821 20.5228 148.877 20.4902V20.2217L157.031 13.8252V41.1445C157.031 42.0397 157.479 42.5605 158.374 42.707V43ZM178.003 43H170.288V22.0527C170.288 20.6855 169.743 20.002 168.652 20.002C167.578 20.002 167.041 20.7018 167.041 22.1016V40.9736C167.041 41.9827 167.489 42.5605 168.384 42.707V43H160.303V22.541C160.303 21.2552 159.831 20.5879 158.887 20.5391V20.3193L167.041 13.8252V16.6084C168.327 15.2575 170.02 14.582 172.119 14.582C175.081 14.5983 176.562 16.055 176.562 18.9521V40.7295C176.562 41.7549 177.043 42.4466 178.003 42.8047V43ZM195.996 43H190.723C189.176 43 188.33 41.9014 188.184 39.7041H188.11C187.345 41.9014 186.287 43 184.937 43H182.007C179.777 43 178.662 41.9583 178.662 39.875V33.0146C178.662 31.5661 178.719 30.6139 178.833 30.1582C178.947 29.7025 179.232 29.2874 179.688 28.9131L187.158 22.7852C187.712 22.3294 187.988 21.8818 187.988 21.4424V20.6367C187.988 20.1484 187.712 19.9043 187.158 19.9043H184.692C182.739 19.9043 181.071 20.6449 179.688 22.126C179.688 21.4424 179.907 20.653 180.347 19.7578L181.714 16.9502C182.479 15.404 183.634 14.6309 185.181 14.6309H191.04C192.244 14.6309 193.172 15.0133 193.823 15.7783C194.474 16.527 194.8 17.4954 194.8 18.6836V38.8252C194.8 40.7295 195.199 42.1211 195.996 43ZM187.988 37.2871V28.9619L186.328 30.2559C185.726 30.7116 185.425 31.5091 185.425 32.6484V36.2129C185.425 36.929 185.791 37.2871 186.523 37.2871H187.988ZM205.786 43H197.705V9.52832C197.705 8.22624 197.233 7.55892 196.289 7.52637V7.33105L204.443 0.983398V41.1445C204.443 42.0397 204.891 42.5605 205.786 42.707V43ZM222.314 38.4102C222.314 40.0703 221.761 41.291 220.654 42.0723C219.401 42.9512 217.375 43.3906 214.575 43.3906C212.313 43.3906 210.645 43.1383 209.57 42.6338C207.878 41.8688 207.031 40.3958 207.031 38.2148V31.5498L207.275 31.5742C207.357 32.7786 207.796 33.8691 208.594 34.8457C209.489 35.9362 210.555 36.5059 211.792 36.5547C212.85 36.6035 213.688 36.4733 214.307 36.1641C215.039 35.7897 215.397 35.1712 215.381 34.3086C215.348 33.4948 214.99 32.7949 214.307 32.209C214.193 32.1276 213.501 31.6963 212.231 30.915C210.327 29.7594 209.261 29.084 209.033 28.8887C207.682 27.7819 207.007 26.5286 207.007 25.1289V19.9531C207.007 16.291 209.644 14.4437 214.917 14.4111C219.849 14.3949 222.314 16.1445 222.314 19.6602V24.3477H222.07C221.598 22.3294 220.158 21.2715 217.749 21.1738C215.698 21.0924 214.665 21.8493 214.648 23.4443C214.648 24.3395 215.308 25.1859 216.626 25.9834C218.905 27.3669 220.133 28.14 220.312 28.3027C221.647 29.4258 222.314 30.8418 222.314 32.5508V38.4102Z" fill="white"/>
</svg>
