<svg width="34" height="34" viewBox="0 0 34 34" fill="none" xmlns="http://www.w3.org/2000/svg">
<g clip-path="url(#clip0)">
<path d="M28.7824 6.36367C26.6149 5.38617 24.2916 4.66367 21.862 4.25284C21.8404 4.24868 21.818 4.25136 21.7979 4.2605C21.7779 4.26963 21.7612 4.28478 21.7501 4.30384C21.4526 4.82659 21.1211 5.508 20.8888 6.04634C18.312 5.66134 15.6923 5.66134 13.1155 6.04634C12.8567 5.44972 12.5649 4.86799 12.2414 4.30384C12.2305 4.28455 12.2139 4.26906 12.1939 4.25944C12.1739 4.24982 12.1514 4.24653 12.1295 4.25C9.70134 4.66084 7.37801 5.38334 5.20909 6.36225C5.19043 6.37008 5.17461 6.38343 5.16376 6.4005C0.755093 12.8818 -0.453324 19.2029 0.140259 25.4448C0.141911 25.46 0.146656 25.4748 0.154206 25.4882C0.161756 25.5016 0.171953 25.5133 0.184176 25.5227C2.7574 27.3961 5.62749 28.8232 8.67426 29.7443C8.6955 29.7509 8.71821 29.7509 8.73944 29.7443C8.76067 29.7377 8.77943 29.7249 8.79326 29.7075C9.44776 28.8292 10.0314 27.9013 10.5301 26.9266C10.5598 26.8699 10.5315 26.8019 10.472 26.7793C9.55685 26.4346 8.67013 26.0187 7.82001 25.5354C7.80473 25.5267 7.79186 25.5143 7.78255 25.4994C7.77323 25.4845 7.76777 25.4675 7.76665 25.4499C7.76552 25.4324 7.76878 25.4148 7.77611 25.3988C7.78345 25.3829 7.79464 25.3689 7.80867 25.3583C7.98717 25.2266 8.16567 25.0892 8.33567 24.9518C8.35098 24.9394 8.36941 24.9315 8.38892 24.929C8.40843 24.9265 8.42825 24.9295 8.44617 24.9376C14.0094 27.4366 20.0345 27.4366 25.5326 24.9376C25.5506 24.929 25.5706 24.9257 25.5904 24.9279C25.6102 24.9302 25.6289 24.9379 25.6445 24.9503C25.8145 25.0892 25.9916 25.2266 26.1715 25.3583C26.1857 25.3687 26.1971 25.3824 26.2046 25.3983C26.2122 25.4141 26.2157 25.4316 26.2149 25.4492C26.214 25.4667 26.2089 25.4838 26.1998 25.4988C26.1907 25.5139 26.1781 25.5265 26.163 25.5354C25.3158 26.0228 24.4347 26.435 23.5096 26.7778C23.4954 26.783 23.4824 26.7911 23.4716 26.8017C23.4608 26.8122 23.4524 26.825 23.4469 26.8391C23.4414 26.8531 23.4389 26.8682 23.4397 26.8833C23.4405 26.8984 23.4446 26.9132 23.4515 26.9266C23.9615 27.8998 24.5452 28.8263 25.1869 29.7061C25.2003 29.7241 25.2189 29.7376 25.2401 29.7447C25.2614 29.7518 25.2844 29.7522 25.3059 29.7458C28.3579 28.8272 31.2327 27.3994 33.8088 25.5227C33.8213 25.5139 33.8319 25.5025 33.8397 25.4893C33.8475 25.4761 33.8524 25.4614 33.8541 25.4462C34.5624 18.2297 32.6669 11.9595 28.8263 6.40334C28.8169 6.38528 28.8013 6.37121 28.7824 6.36367ZM11.3617 21.6438C9.68717 21.6438 8.30592 20.1294 8.30592 18.2722C8.30592 16.4135 9.66026 14.9005 11.3617 14.9005C13.0758 14.9005 14.4443 16.4263 14.4174 18.2722C14.4174 20.1308 13.0631 21.6438 11.3617 21.6438ZM22.6596 21.6438C20.9837 21.6438 19.6038 20.1294 19.6038 18.2722C19.6038 16.4135 20.9568 14.9005 22.6596 14.9005C24.3738 14.9005 25.7423 16.4263 25.7153 18.2722C25.7153 20.1308 24.3752 21.6438 22.6596 21.6438Z" fill="white"/>
</g>
<defs>
<clipPath id="clip0">
<rect width="34" height="34" fill="white"/>
</clipPath>
</defs>
</svg>
